<svg xmlns="http://www.w3.org/2000/svg" viewBox="0 0 96.32 23.54"><defs><style>.cls-1{fill:#02f003;}.cls-2{fill:#0f793e;}.cls-3{fill:#2e323e;}.cls-4{fill:#02bf02;}.cls-5{fill:#2b303c;}.cls-6{fill:#2c313c;}.cls-7{fill:#2d323d;}.cls-8{fill:#292e39;}.cls-9{fill:#2f343f;}.cls-10{font-size:5px;fill:#17c417;font-family:Roboto-Black, Roboto;font-weight:800;}</style></defs><title>Asset 3</title><g id="Layer_2" data-name="Layer 2"><g id="Layer_1-2" data-name="Layer 1"><path class="cls-1" d="M0,5.53C1.75,2.71,4.61,1.65,7.57.79a14.4,14.4,0,0,1,7-.57,2.52,2.52,0,0,1,1.31.5V2.21c-.78.73-1.65,1.49-2.46,2.31a40,40,0,0,0-3.55,3.7C7.5,7.6,5.16,7,2.84,6.34A2.61,2.61,0,0,0,0,6.73Z"/><path class="cls-2" d="M0,6.73a2.61,2.61,0,0,1,2.84-.39C5.16,7,7.5,7.6,9.83,8.22a3.66,3.66,0,0,0,.07.94c.73,2.24,1.22,4.56,1.88,6.82a1.36,1.36,0,0,0,1.61,1.07,2.81,2.81,0,0,1-3.2.59A15.26,15.26,0,0,1,5,14.36,19.78,19.78,0,0,1,0,7.45Z"/><path class="cls-3" d="M96,10.81c-2.15-.14-4.3,0-6.45-.07,0,1.23.37,1.8,1.34,2.12a2.31,2.31,0,0,0,2.8-1.07,9.11,9.11,0,0,1,2,0,2,2,0,0,1-.56,1.3,4.27,4.27,0,0,1-4.5,1.53,3.84,3.84,0,0,1-3.26-3.1,5,5,0,0,1,.94-4.73,4.4,4.4,0,0,1,7.41,1.5c.08.21,0,.49.25.63ZM89.45,9.18h4.36C93.36,7.63,92.6,7,91.48,7S89.77,7.67,89.45,9.18Z"/><path class="cls-4" d="M13.39,17.05A1.36,1.36,0,0,1,11.78,16c-.66-2.26-1.15-4.58-1.88-6.82a3.66,3.66,0,0,1-.07-.94,40,40,0,0,1,3.55-3.7c.81-.82,1.68-1.58,2.46-2.31V.72c1.45.56,1.77,1.86,1.92,3.18a17.9,17.9,0,0,1-1.44,8.75A9.15,9.15,0,0,1,13.39,17.05Z"/><path class="cls-5" d="M22.33,5.58h2.34l1.87,6.21,1.82-6.17a8.58,8.58,0,0,1,2,0c.76,2,1.24,4.07,1.88,6.28l1.89-6.25a9.63,9.63,0,0,1,2.34,0l-2.9,8.76a9.74,9.74,0,0,1-2.29.07c-.76-2-1.18-4-1.91-6.08l-1.83,6.07H25.25Z"/><path class="cls-5" d="M39.23,7.43l-.47,1a10.22,10.22,0,0,1-1.92,0A2.77,2.77,0,0,1,39.1,5.55a8.68,8.68,0,0,1,3.33,0,2.38,2.38,0,0,1,2,2.44c0,1.32,0,2.64,0,3.95a8,8,0,0,0,.27,2.42,5.79,5.79,0,0,1-1.93.09c-.4-.16-.22-.53-.4-.74-.23,0-.35.14-.51.25a3.92,3.92,0,0,1-4.29.26,2.29,2.29,0,0,1-1.22-2.5,2.3,2.3,0,0,1,1.69-2.09,10.37,10.37,0,0,1,2.46-.46A9,9,0,0,0,41.59,9a.91.91,0,0,0,.79-.92,1,1,0,0,0-.86-1A2.7,2.7,0,0,0,39.23,7.43Zm3.1,2.79a12.12,12.12,0,0,1-2.65.54c-.65.17-1.1.45-1.08,1.2s.48,1.08,1.25,1.18C41.43,13.33,42.46,12.2,42.33,10.22Z"/><path class="cls-6" d="M49.46,12.41c.67-2.31,1.41-4.57,2.15-6.83h2.15a5.11,5.11,0,0,1-.44,1.6c-.87,2.48-1.76,5-2.65,7.42-.12.34-.24.68-.38,1a3.56,3.56,0,0,1-4.59,2.14V16.26c.12-.06.19-.12.26-.12,1.93-.18,2.37-.8,1.76-2.66C47,11.29,46.19,9.12,45.42,7c-.14-.41-.28-.83-.46-1.33a11,11,0,0,1,2.29,0C48.13,7.82,48.76,10.11,49.46,12.41Z"/><path class="cls-5" d="M77,10.09A4.54,4.54,0,1,1,68,10a4.54,4.54,0,1,1,9.07.07ZM74.83,10a3.44,3.44,0,0,0-.21-1.27A2.22,2.22,0,0,0,70.31,9a4.64,4.64,0,0,0,.07,2.37,2.17,2.17,0,0,0,2.4,1.52C74,12.69,74.76,11.72,74.83,10Z"/><path class="cls-7" d="M53.91,11.74a6.42,6.42,0,0,1,2-.07,1.83,1.83,0,0,0,2,1.5c.76,0,1.55,0,1.82-1-.06-.82-.61-1-1.29-1.16A12.8,12.8,0,0,1,56,10.52a2.56,2.56,0,0,1-1.94-2.69,2.7,2.7,0,0,1,2.5-2.34,8.52,8.52,0,0,1,2.62,0A2.75,2.75,0,0,1,61.66,8.3a7.31,7.31,0,0,1-1.94.06c-.21-1.15-1-1.5-2.08-1.43C56.9,7,56.3,7.15,56.18,8c.28.86,1,1,1.73,1.07a13.32,13.32,0,0,1,2.33.53,2.29,2.29,0,0,1,1.68,2A2.4,2.4,0,0,1,60.79,14a6.1,6.1,0,0,1-5.72,0C54.38,13.51,54.13,13,53.91,11.74Z"/><path class="cls-8" d="M80.35,14.38a7.73,7.73,0,0,1-2.09,0V5.66A5.6,5.6,0,0,1,80,5.56c.37.32.07.72.22,1a.25.25,0,0,0,.32-.08c1-1.24,2.34-1.25,3.72-.94a2.69,2.69,0,0,1,1.87,2.53c0,2.07,0,4.15,0,6.29a10.44,10.44,0,0,1-2.2.07V11.13c0-.64,0-1.28,0-1.92,0-1.35-.46-1.92-1.54-2a2,2,0,0,0-2.06,1.9c-.06,1,0,2,0,3Z"/><path class="cls-9" d="M65.75,12.52c.63.39,1.16.13,1.63.41v1.45a3.67,3.67,0,0,1-2.65-.07,2,2,0,0,1-1.28-2.09c0-1.28,0-2.56,0-3.84a2,2,0,0,0-.1-1.05c-.37-.23-.8,0-1.18-.19a3.13,3.13,0,0,1,0-1.55l1.25-.1V3.06A6.07,6.07,0,0,1,65.55,3a21.6,21.6,0,0,1,.14,2.4c.5.29,1.09,0,1.67.22V7.12c-.52.24-1.06,0-1.73.24C65.7,9.06,65.52,10.81,65.75,12.52Z"/><text class="cls-10" transform="translate(85.43 22.19)">PPM</text></g></g></svg>